<?xml version="1.0" encoding="utf-8"?>
<!-- Generator: Adobe Illustrator 21.0.0, SVG Export Plug-In . SVG Version: 6.00 Build 0)  -->
<svg version="1.1" id="Layer_4" xmlns="http://www.w3.org/2000/svg" xmlns:xlink="http://www.w3.org/1999/xlink" x="0px" y="0px"
	 viewBox="0 0 2051.1 256.4" style="enable-background:new 0 0 2051.1 256.4;" xml:space="preserve">
<style type="text/css">
	.st0{fill:#757575;}
	.st1{enable-background:new    ;}
	.st2{fill:none;}
	.st3{fill:#FFC107;}
	.st4{fill:#0F9D58;}
	.st5{opacity:0.2;fill:#BF360C;enable-background:new    ;}
	.st6{opacity:0.2;fill:#263238;enable-background:new    ;}
	.st7{opacity:0.2;fill:#FFFFFF;enable-background:new    ;}
	.st8{fill:url(#XMLID_5_);}
	.st9{fill:url(#XMLID_21_);}
	.st10{fill:#4285F4;}
	.st11{fill:#DB4437;}
	.st12{opacity:0.2;fill:#1A237E;enable-background:new    ;}
	.st13{opacity:0.2;fill:#3E2723;enable-background:new    ;}
	.st14{fill:url(#XMLID_22_);}
</style>
<g id="XMLID_6_">
	<path id="XMLID_3_" class="st0" d="M359.9,133.8c0,22-6.5,39.6-19.6,52.7c-14.8,15.6-34.1,23.4-57.9,23.4
		c-22.8,0-42.1-7.9-58.1-23.7c-15.9-15.8-23.9-35.4-23.9-58.7s8-42.9,23.9-58.7s35.3-23.7,58.1-23.7c11.3,0,22.1,2.2,32.4,6.6
		s18.5,10.3,24.7,17.6l-13.9,13.9c-10.5-12.6-24.9-18.8-43.3-18.8c-16.6,0-31,5.8-43.1,17.5S221,108.7,221,127.4s6.1,33.8,18.2,45.5
		s26.5,17.5,43.1,17.5c17.6,0,32.3-5.9,44.1-17.6c7.6-7.6,12-18.3,13.2-31.9h-57.3v-19h76.4C359.5,126,359.9,130,359.9,133.8
		L359.9,133.8z"/>
	<path id="XMLID_20_" class="st0" d="M380.3,206.3V48.5h48.2c24.2,0,43.6,7.3,58.2,21.9c14.5,14.6,21.8,33.6,21.8,57
		s-7.3,42.3-21.8,57c-14.5,14.6-33.9,21.9-58.2,21.9L380.3,206.3L380.3,206.3z M400.6,186.9h28c18.2,0,32.6-5.2,43.3-15.6
		c10.6-10.4,16-25,16-43.8c0-18.7-5.3-33.2-16-43.7S446.8,68,428.6,68h-28V186.9z"/>
	<path id="XMLID_23_" class="st0" d="M681,133.8c0,22-6.5,39.6-19.6,52.7c-14.8,15.6-34.1,23.4-57.9,23.4
		c-22.8,0-42.1-7.9-58.1-23.7c-15.9-15.8-23.9-35.4-23.9-58.7s8-42.9,23.9-58.7s35.3-23.7,58.1-23.7c11.3,0,22.1,2.2,32.4,6.6
		c10.3,4.4,18.5,10.3,24.7,17.6l-13.9,13.9c-10.5-12.6-24.9-18.8-43.3-18.8c-16.6,0-31,5.8-43.1,17.5s-18.2,26.8-18.2,45.5
		s6.1,33.8,18.2,45.5s26.5,17.5,43.1,17.5c17.6,0,32.3-5.9,44.1-17.6c7.6-7.6,12-18.3,13.2-31.9h-57.3v-19h76.4
		C680.6,126,681,130,681,133.8L681,133.8z"/>
</g>
<g class="st1">
	<path class="st0" d="M845.7,48.8h26.2v0.9l-58.5,67.5l62.5,88.2v0.9h-24.9l-51.3-73.5l-24.2,27.9v45.5h-20.2V48.8h20.2V130h0.9
		L845.7,48.8z"/>
	<path class="st0" d="M978.8,206.3h-19.4v-15h-0.9c-3.1,5.3-7.8,9.7-14.2,13.2c-6.4,3.5-13,5.3-19.9,5.3c-13.2,0-23.4-3.8-30.5-11.3
		c-7.1-7.6-10.7-18.3-10.7-32.2V98.5h20.2v66.4c0.4,17.6,9.3,26.4,26.6,26.4c8.1,0,14.8-3.3,20.2-9.8c5.4-6.5,8.1-14.3,8.1-23.4
		V98.5h20.2V206.3z"/>
	<path class="st0" d="M1043.2,95c15,0,26.8,4,35.4,12c8.7,8,13,19,13,32.9v66.4h-19.4v-15h-0.9c-8.4,12.3-19.5,18.5-33.4,18.5
		c-11.9,0-21.8-3.5-29.8-10.6c-8-7-12-15.8-12-26.4c0-11.1,4.2-20,12.6-26.6c8.4-6.6,19.7-9.9,33.8-9.9c12,0,21.9,2.2,29.7,6.6v-4.6
		c0-7-2.8-13-8.4-17.9c-5.6-4.9-12.1-7.4-19.6-7.4c-11.3,0-20.2,4.8-26.8,14.3l-17.8-11.2C1009.5,102,1024,95,1043.2,95z
		 M1017.1,173.3c0,5.3,2.2,9.7,6.7,13.2c4.5,3.5,9.7,5.3,15.7,5.3c8.5,0,16.1-3.2,22.8-9.5c6.7-6.3,10-13.7,10-22.2
		c-6.3-5-15.1-7.5-26.4-7.5c-8.2,0-15.1,2-20.6,5.9C1019.8,162.5,1017.1,167.4,1017.1,173.3z"/>
	<path class="st0" d="M1134.8,48.8v157.5h-20.2V48.8H1134.8z"/>
	<path class="st0" d="M1199.2,95c15,0,26.8,4,35.4,12c8.7,8,13,19,13,32.9v66.4h-19.4v-15h-0.9c-8.4,12.3-19.5,18.5-33.4,18.5
		c-11.9,0-21.8-3.5-29.8-10.6c-8-7-12-15.8-12-26.4c0-11.1,4.2-20,12.7-26.6c8.4-6.6,19.7-9.9,33.8-9.9c12,0,21.9,2.2,29.7,6.6v-4.6
		c0-7-2.8-13-8.4-17.9c-5.6-4.9-12.1-7.4-19.6-7.4c-11.3,0-20.2,4.8-26.8,14.3l-17.8-11.2C1165.5,102,1180,95,1199.2,95z
		 M1173,173.3c0,5.3,2.2,9.7,6.7,13.2c4.5,3.5,9.7,5.3,15.7,5.3c8.5,0,16.1-3.2,22.8-9.5c6.7-6.3,10-13.7,10-22.2
		c-6.3-5-15.1-7.5-26.4-7.5c-8.2,0-15.1,2-20.6,5.9C1175.8,162.5,1173,167.4,1173,173.3z"/>
	<path class="st0" d="M1410.8,206.3h-88.4V48.8h20.2v138.2h68.2V206.3z"/>
	<path class="st0" d="M1520.8,206.3h-19.4v-15h-0.9c-3.1,5.3-7.8,9.7-14.2,13.2c-6.4,3.5-13,5.3-19.9,5.3
		c-13.2,0-23.4-3.8-30.5-11.3c-7.1-7.6-10.7-18.3-10.7-32.2V98.5h20.2v66.4c0.4,17.6,9.3,26.4,26.6,26.4c8.1,0,14.8-3.3,20.2-9.8
		c5.4-6.5,8.1-14.3,8.1-23.4V98.5h20.2V206.3z"/>
	<path class="st0" d="M1565.7,206.3h-20.2V98.5h19.4v15h0.9c3.1-5.3,7.8-9.7,14.2-13.2c6.4-3.5,12.7-5.3,19-5.3
		c7.9,0,14.9,1.8,20.9,5.5c6,3.7,10.4,8.7,13.2,15.2c8.9-13.8,21.3-20.7,37.2-20.7c12.5,0,22.1,3.8,28.8,11.4
		c6.7,7.6,10.1,18.5,10.1,32.6v67.3h-20.2v-64.2c0-10.1-1.8-17.4-5.5-21.9c-3.7-4.5-9.8-6.7-18.5-6.7c-7.8,0-14.3,3.3-19.6,9.9
		c-5.3,6.6-7.9,14.4-7.9,23.3v59.6h-20.2v-64.2c0-10.1-1.8-17.4-5.5-21.9c-3.7-4.5-9.8-6.7-18.5-6.7c-7.8,0-14.3,3.3-19.6,9.9
		c-5.3,6.6-7.9,14.4-7.9,23.3V206.3z"/>
	<path class="st0" d="M1789,209.8c-7.9,0-15.1-1.7-21.7-5.1c-6.5-3.4-11.5-7.8-15.1-13.4h-0.9l0.9,15v47.5H1732V98.5h19.4v15h0.9
		c3.5-5.6,8.5-10,15.1-13.4c6.5-3.4,13.8-5.1,21.7-5.1c14.2,0,26.3,5.6,36.1,16.7c10.1,11.3,15.2,24.9,15.2,40.7
		c0,16-5.1,29.6-15.2,40.7C1815.3,204.2,1803.2,209.8,1789,209.8z M1785.7,191.3c9.7,0,17.8-3.7,24.4-11c6.6-7.2,9.9-16.5,9.9-27.9
		c0-11.3-3.3-20.6-9.9-27.9c-6.6-7.3-14.7-11-24.4-11c-9.8,0-18,3.7-24.6,11c-6.5,7.3-9.7,16.6-9.7,27.9c0,11.4,3.2,20.8,9.7,28.2
		C1767.7,187.7,1775.9,191.3,1785.7,191.3z"/>
	<path class="st0" d="M1952.3,206.3h-19.4v-15h-0.9c-3.1,5.3-7.8,9.7-14.2,13.2c-6.4,3.5-13,5.3-19.9,5.3
		c-13.2,0-23.4-3.8-30.5-11.3c-7.1-7.6-10.7-18.3-10.7-32.2V98.5h20.2v66.4c0.4,17.6,9.3,26.4,26.6,26.4c8.1,0,14.8-3.3,20.2-9.8
		c5.4-6.5,8.1-14.3,8.1-23.4V98.5h20.2V206.3z"/>
	<path class="st0" d="M1997.1,206.3h-20.2V98.5h19.4v17.6h0.9c2.1-5.7,6.3-10.6,12.7-14.6c6.4-4,12.7-6,18.8-6
		c5.9,0,10.9,0.9,15,2.6l-6.2,19.6c-2.5-1-6.5-1.5-11.9-1.5c-7.6,0-14.3,3.1-19.9,9.2c-5.6,6.2-8.5,13.3-8.5,21.6V206.3z"/>
</g>
<g id="XMLID_1_">
	<g id="XMLID_50_">
		<g id="XMLID_72_">
			<path id="XMLID_7_" class="st2" d="M123.7,120.7L71.3,30.1H1.2l57.8,100l-57.8,100h70.1l52.4-90.6
				C127,133.7,127,126.5,123.7,120.7z"/>
			<path id="XMLID_80_" class="st3" d="M93.6,189.9L77,161.2l-39.9,68.9h34.2l22.8-39.4L93.6,189.9z"/>
			<path id="XMLID_8_" class="st2" d="M123.7,120.7L71.3,30.1H1.2l57.8,100l-57.8,100h70.1l52.4-90.6
				C127,133.7,127,126.5,123.7,120.7z"/>
			<path id="XMLID_39_" class="st4" d="M59,130.1l18,31.1l-39.9,68.9H1.2L59,130.1z"/>
			<path id="XMLID_9_" class="st2" d="M123.7,120.7L71.3,30.1H1.2l57.8,100l-57.8,100h70.1l52.4-90.6
				C127,133.7,127,126.5,123.7,120.7z"/>
			<path id="XMLID_38_" class="st5" d="M71.3,228.5H38l-0.9,1.6h34.2l22.8-39.4l-0.5-0.8L71.3,228.5z"/>
			<path id="XMLID_10_" class="st2" d="M123.7,120.7L71.3,30.1H1.2l57.8,100l-57.8,100h70.1l52.4-90.6
				C127,133.7,127,126.5,123.7,120.7z"/>
			<path id="XMLID_37_" class="st6" d="M2.1,228.5l-0.9,1.6h35.9l0.9-1.6H2.1z"/>
			<path id="XMLID_11_" class="st2" d="M123.7,120.7L71.3,30.1H1.2l57.8,100l-57.8,100h70.1l52.4-90.6
				C127,133.7,127,126.5,123.7,120.7z"/>
			<path id="XMLID_36_" class="st7" d="M1.2,230.1h0.9l57.4-99.2l-0.5-0.8L1.2,230.1z"/>
			<path id="XMLID_12_" class="st2" d="M123.7,120.7L71.3,30.1H1.2l57.8,100l-57.8,100h70.1l52.4-90.6
				C127,133.7,127,126.5,123.7,120.7z"/>
			
				<radialGradient id="XMLID_5_" cx="503.091" cy="-284.578" r="44.264" gradientTransform="matrix(1.5625 0 0 -1.5625 -692.235 -254.594)" gradientUnits="userSpaceOnUse">
				<stop  offset="0" style="stop-color:#BF360C;stop-opacity:0.2"/>
				<stop  offset="1" style="stop-color:#BF360C;stop-opacity:2.000000e-02"/>
			</radialGradient>
			<path id="XMLID_79_" class="st8" d="M94.1,190.7L77,161.2l-4.2,7.2L94.1,190.7z"/>
			<path id="XMLID_13_" class="st2" d="M123.7,120.7L71.3,30.1H1.2l57.8,100l-57.8,100h70.1l52.4-90.6
				C127,133.7,127,126.5,123.7,120.7z"/>
			
				<radialGradient id="XMLID_21_" cx="502.966" cy="-284.858" r="44.623" gradientTransform="matrix(1.5625 0 0 -1.5625 -692.235 -254.594)" gradientUnits="userSpaceOnUse">
				<stop  offset="0" style="stop-color:#263238;stop-opacity:0.2"/>
				<stop  offset="1" style="stop-color:#263238;stop-opacity:2.000000e-02"/>
			</radialGradient>
			<path id="XMLID_78_" class="st9" d="M72.8,168.4l4.2-7.2l-18-31.1l-8.5,14.8L72.8,168.4z"/>
			<path id="XMLID_14_" class="st2" d="M123.7,120.7L71.3,30.1H1.2l57.8,100l-57.8,100h70.1l52.4-90.6
				C127,133.7,127,126.5,123.7,120.7z"/>
			<g id="XMLID_75_">
				<g id="XMLID_76_">
					<path id="XMLID_77_" class="st10" d="M37.1,30.1H1.2l92.9,160.6l17.9-31.1L37.1,30.1z"/>
				</g>
			</g>
			<path id="XMLID_15_" class="st2" d="M123.7,120.7L71.3,30.1H1.2l57.8,100l-57.8,100h70.1l52.4-90.6
				C127,133.7,127,126.5,123.7,120.7z"/>
			<path id="XMLID_35_" class="st11" d="M123.7,139.5c3.4-5.8,3.4-13,0-18.8L71.3,30.1H37.1L112,159.6L123.7,139.5z"/>
			<path id="XMLID_16_" class="st2" d="M123.7,120.7L71.3,30.1H1.2l57.8,100l-57.8,100h70.1l52.4-90.6
				C127,133.7,127,126.5,123.7,120.7z"/>
			<path id="XMLID_34_" class="st12" d="M112,159.6l-0.4-0.8l-17.5,30.3l-92-159H1.2l92.9,160.6L112,159.6z"/>
			<path id="XMLID_17_" class="st2" d="M123.7,120.7L71.3,30.1H1.2l57.8,100l-57.8,100h70.1l52.4-90.6
				C127,133.7,127,126.5,123.7,120.7z"/>
			<path id="XMLID_2_" class="st7" d="M71.3,31.7l52.4,90.6c1.5,2.7,2.3,5.6,2.5,8.6c0.1-3.5-0.7-7-2.5-10.2L71.3,30.1H1.2l0.9,1.6
				H71.3z"/>
			<path id="XMLID_18_" class="st2" d="M123.7,120.7L71.3,30.1H1.2l57.8,100l-57.8,100h70.1l52.4-90.6
				C127,133.7,127,126.5,123.7,120.7z"/>
			<path id="XMLID_74_" class="st13" d="M112,159.6l11.6-20.1c1.8-3.1,2.6-6.7,2.5-10.2c-0.1,3-0.9,5.9-2.5,8.6l-12.1,20.9
				L112,159.6z"/>
			<path id="XMLID_19_" class="st2" d="M123.7,120.7L71.3,30.1H1.2l57.8,100l-57.8,100h70.1l52.4-90.6
				C127,133.7,127,126.5,123.7,120.7z"/>
			
				<radialGradient id="XMLID_22_" cx="442.815" cy="-183.204" r="134.35" gradientTransform="matrix(1.5625 0 0 -1.5625 -692.235 -254.594)" gradientUnits="userSpaceOnUse">
				<stop  offset="0" style="stop-color:#FFFFFF;stop-opacity:0.1"/>
				<stop  offset="1" style="stop-color:#FFFFFF;stop-opacity:0"/>
			</radialGradient>
			<path id="XMLID_73_" class="st14" d="M123.7,120.7L71.3,30.1H1.2l57.8,100l-57.8,100h70.1l52.4-90.6
				C127,133.7,127,126.5,123.7,120.7z"/>
		</g>
	</g>
</g>
</svg>
