<?xml version="1.0" encoding="utf-8"?>
<!-- Generator: Adobe Illustrator 21.0.0, SVG Export Plug-In . SVG Version: 6.00 Build 0)  -->
<svg version="1.1" id="Layer_4" xmlns="http://www.w3.org/2000/svg" xmlns:xlink="http://www.w3.org/1999/xlink" x="0px" y="0px"
	 viewBox="0 0 2051.1 256.4" style="enable-background:new 0 0 2051.1 256.4;" xml:space="preserve">
<style type="text/css">
	.st0{fill:#757575;}
	.st1{font-family:'ProductSans-Regular';}
	.st2{font-size:220px;}
</style>
<g id="XMLID_6_">
	<path id="XMLID_3_" class="st0" d="M359.9,133.8c0,22-6.5,39.6-19.6,52.7c-14.8,15.6-34.1,23.4-57.9,23.4
		c-22.8,0-42.1-7.9-58.1-23.7c-15.9-15.8-23.9-35.4-23.9-58.7s8-42.9,23.9-58.7s35.3-23.7,58.1-23.7c11.3,0,22.1,2.2,32.4,6.6
		s18.5,10.3,24.7,17.6l-13.9,13.9c-10.5-12.6-24.9-18.8-43.3-18.8c-16.6,0-31,5.8-43.1,17.5S221,108.7,221,127.4s6.1,33.8,18.2,45.5
		s26.5,17.5,43.1,17.5c17.6,0,32.3-5.9,44.1-17.6c7.6-7.6,12-18.3,13.2-31.9h-57.3v-19h76.4C359.5,126,359.9,130,359.9,133.8
		L359.9,133.8z"/>
	<path id="XMLID_20_" class="st0" d="M380.3,206.3V48.5h48.2c24.2,0,43.6,7.3,58.2,21.9c14.5,14.6,21.8,33.6,21.8,57
		s-7.3,42.3-21.8,57c-14.5,14.6-33.9,21.9-58.2,21.9L380.3,206.3L380.3,206.3z M400.6,186.9h28c18.2,0,32.6-5.2,43.3-15.6
		c10.6-10.4,16-25,16-43.8c0-18.7-5.3-33.2-16-43.7S446.8,68,428.6,68h-28V186.9z"/>
	<path id="XMLID_23_" class="st0" d="M681,133.8c0,22-6.5,39.6-19.6,52.7c-14.8,15.6-34.1,23.4-57.9,23.4
		c-22.8,0-42.1-7.9-58.1-23.7c-15.9-15.8-23.9-35.4-23.9-58.7s8-42.9,23.9-58.7s35.3-23.7,58.1-23.7c11.3,0,22.1,2.2,32.4,6.6
		c10.3,4.4,18.5,10.3,24.7,17.6l-13.9,13.9c-10.5-12.6-24.9-18.8-43.3-18.8c-16.6,0-31,5.8-43.1,17.5s-18.2,26.8-18.2,45.5
		s6.1,33.8,18.2,45.5s26.5,17.5,43.1,17.5c17.6,0,32.3-5.9,44.1-17.6c7.6-7.6,12-18.3,13.2-31.9h-57.3v-19h76.4
		C680.6,126,681,130,681,133.8L681,133.8z"/>
</g>
<g id="XMLID_261_">
	<path id="XMLID_259_" class="st0" d="M32.3,29.4H0l92.3,160l16.2-28L32.3,29.4z"/>
	<path id="XMLID_258_" class="st0" d="M120.9,120.4l-52.6-91H36.1l74.3,128.8l10.5-18.2c1.7-2.8,2.8-6.2,2.8-9.8
		C123.6,126.6,122.6,123.3,120.9,120.4L120.9,120.4z"/>
	<path id="XMLID_257_" class="st0" d="M56.3,133.5L0.9,229.4h32.3l39.3-68L56.3,133.5z"/>
	<path id="XMLID_256_" class="st0" d="M74.3,164.7L37,229.4h32.2l21.3-36.8L74.3,164.7L74.3,164.7z"/>
</g>
<text transform="matrix(1 0 0 1 739.4092 206.2925)" class="st0 st1 st2">Kuala Lumpur</text>
</svg>
