<svg xmlns="http://www.w3.org/2000/svg" id="Layer_4" viewBox="0 0 2051.1 256.4"><style>.st0{fill:#757575;} .st1{font-family:&apos;ProductSans-Regular&apos;;} .st2{font-size:220px;}</style><g id="XMLID_6_"><path id="XMLID_3_" d="M359.9 133.8c0 22-6.5 39.6-19.6 52.7-14.8 15.6-34.1 23.4-57.9 23.4-22.8 0-42.1-7.9-58.1-23.7-15.9-15.8-23.9-35.4-23.9-58.7s8-42.9 23.9-58.7 35.3-23.7 58.1-23.7c11.3 0 22.1 2.2 32.4 6.6s18.5 10.3 24.7 17.6l-13.9 13.9c-10.5-12.6-24.9-18.8-43.3-18.8-16.6 0-31 5.8-43.1 17.5S221 108.7 221 127.4s6.1 33.8 18.2 45.5 26.5 17.5 43.1 17.5c17.6 0 32.3-5.9 44.1-17.6 7.6-7.6 12-18.3 13.2-31.9h-57.3v-19h76.4c.8 4.1 1.2 8.1 1.2 11.9z" class="st0"/><path id="XMLID_20_" d="M380.3 206.3V48.5h48.2c24.2 0 43.6 7.3 58.2 21.9 14.5 14.6 21.8 33.6 21.8 57s-7.3 42.3-21.8 57c-14.5 14.6-33.9 21.9-58.2 21.9h-48.2zm20.3-19.4h28c18.2 0 32.6-5.2 43.3-15.6 10.6-10.4 16-25 16-43.8 0-18.7-5.3-33.2-16-43.7S446.8 68 428.6 68h-28v118.9z" class="st0"/><path id="XMLID_23_" d="M681 133.8c0 22-6.5 39.6-19.6 52.7-14.8 15.6-34.1 23.4-57.9 23.4-22.8 0-42.1-7.9-58.1-23.7-15.9-15.8-23.9-35.4-23.9-58.7s8-42.9 23.9-58.7 35.3-23.7 58.1-23.7c11.3 0 22.1 2.2 32.4 6.6 10.3 4.4 18.5 10.3 24.7 17.6l-13.9 13.9c-10.5-12.6-24.9-18.8-43.3-18.8-16.6 0-31 5.8-43.1 17.5s-18.2 26.8-18.2 45.5 6.1 33.8 18.2 45.5 26.5 17.5 43.1 17.5c17.6 0 32.3-5.9 44.1-17.6 7.6-7.6 12-18.3 13.2-31.9h-57.3v-19h76.4c.8 4.1 1.2 8.1 1.2 11.9z" class="st0"/></g><g id="XMLID_261_"><path id="XMLID_259_" d="M32.3 29.4H0l92.3 160 16.2-28-76.2-132z" class="st0"/><path id="XMLID_258_" d="M120.9 120.4l-52.6-91H36.1l74.3 128.8 10.5-18.2c1.7-2.8 2.8-6.2 2.8-9.8-.1-3.6-1.1-6.9-2.8-9.8z" class="st0"/><path id="XMLID_257_" d="M56.3 133.5L.9 229.4h32.3l39.3-68-16.2-27.9z" class="st0"/><path id="XMLID_256_" d="M74.3 164.7L37 229.4h32.2l21.3-36.8-16.2-27.9z" class="st0"/></g><text transform="translate(739.41 206.292)" class="st0 st1 st2">Kuala Lumpur</text></svg>