<?xml version="1.0" encoding="utf-8"?>
<!-- Generator: Adobe Illustrator 21.0.0, SVG Export Plug-In . SVG Version: 6.00 Build 0)  -->
<svg version="1.1" id="Layer_4" xmlns="http://www.w3.org/2000/svg" xmlns:xlink="http://www.w3.org/1999/xlink" x="0px" y="0px"
	 viewBox="0 0 978.8 200" style="enable-background:new 0 0 978.8 200;" xml:space="preserve">
<style type="text/css">
	.st0{fill:#757575;}
	.st1{fill:none;}
	.st2{fill:#FFC107;}
	.st3{fill:#0F9D58;}
	.st4{opacity:0.2;fill:#BF360C;enable-background:new    ;}
	.st5{opacity:0.2;fill:#263238;enable-background:new    ;}
	.st6{opacity:0.2;fill:#FFFFFF;enable-background:new    ;}
	.st7{fill:url(#XMLID_5_);}
	.st8{fill:url(#XMLID_21_);}
	.st9{fill:#4285F4;}
	.st10{fill:#DB4437;}
	.st11{opacity:0.2;fill:#1A237E;enable-background:new    ;}
	.st12{opacity:0.2;fill:#3E2723;enable-background:new    ;}
	.st13{fill:url(#XMLID_22_);}
</style>
<g id="XMLID_6_">
	<path id="XMLID_3_" class="st0" d="M357.8,103.7c0,22-6.5,39.6-19.6,52.7c-14.8,15.6-34.1,23.4-57.9,23.4
		c-22.8,0-42.1-7.9-58.1-23.7c-15.9-15.8-23.9-35.4-23.9-58.7s8-42.9,23.9-58.7S257.5,15,280.3,15c11.3,0,22.1,2.2,32.4,6.6
		s18.5,10.3,24.7,17.6l-13.9,13.9c-10.5-12.6-24.9-18.8-43.3-18.8c-16.6,0-31,5.8-43.1,17.5s-18.2,26.8-18.2,45.5
		s6.1,33.8,18.2,45.5c12.1,11.7,26.5,17.5,43.1,17.5c17.6,0,32.3-5.9,44.1-17.6c7.6-7.6,12-18.3,13.2-31.9h-57.3v-19h76.4
		C357.4,95.9,357.8,99.9,357.8,103.7L357.8,103.7z"/>
	<path id="XMLID_20_" class="st0" d="M378.2,176.2V18.4h48.2c24.2,0,43.6,7.3,58.2,21.9c14.5,14.6,21.8,33.6,21.8,57
		s-7.3,42.3-21.8,57c-14.5,14.6-33.9,21.9-58.2,21.9L378.2,176.2L378.2,176.2z M398.5,156.8h28c18.2,0,32.6-5.2,43.3-15.6
		c10.6-10.4,16-25,16-43.8c0-18.7-5.3-33.2-16-43.7s-25.1-15.8-43.3-15.8h-28V156.8z"/>
	<path id="XMLID_23_" class="st0" d="M678.9,103.7c0,22-6.5,39.6-19.6,52.7c-14.8,15.6-34.1,23.4-57.9,23.4
		c-22.8,0-42.1-7.9-58.1-23.7c-15.9-15.8-23.9-35.4-23.9-58.7s8-42.9,23.9-58.7S578.6,15,601.4,15c11.3,0,22.1,2.2,32.4,6.6
		c10.3,4.4,18.5,10.3,24.7,17.6l-13.9,13.9c-10.5-12.6-24.9-18.8-43.3-18.8c-16.6,0-31,5.8-43.1,17.5S540,78.6,540,97.3
		s6.1,33.8,18.2,45.5s26.5,17.5,43.1,17.5c17.6,0,32.3-5.9,44.1-17.6c7.6-7.6,12-18.3,13.2-31.9h-57.3v-19h76.4
		C678.5,95.9,678.9,99.9,678.9,103.7L678.9,103.7z"/>
</g>
<g id="XMLID_1_">
	<g id="XMLID_50_">
		<g id="XMLID_72_">
			<path id="XMLID_7_" class="st1" d="M121.6,90.6L69.2,0H-0.9l57.8,100L-0.9,200h70.1l52.4-90.6C124.9,103.6,124.9,96.4,121.6,90.6
				z"/>
			<path id="XMLID_80_" class="st2" d="M91.5,159.8l-16.6-28.7L35,200h34.2L92,160.6L91.5,159.8z"/>
			<path id="XMLID_8_" class="st1" d="M121.6,90.6L69.2,0H-0.9l57.8,100L-0.9,200h70.1l52.4-90.6C124.9,103.6,124.9,96.4,121.6,90.6
				z"/>
			<path id="XMLID_39_" class="st3" d="M56.9,100l18,31.1L35,200H-0.9L56.9,100z"/>
			<path id="XMLID_9_" class="st1" d="M121.6,90.6L69.2,0H-0.9l57.8,100L-0.9,200h70.1l52.4-90.6C124.9,103.6,124.9,96.4,121.6,90.6
				z"/>
			<path id="XMLID_38_" class="st4" d="M69.2,198.4H35.9L35,200h34.2L92,160.6l-0.5-0.8L69.2,198.4z"/>
			<path id="XMLID_10_" class="st1" d="M121.6,90.6L69.2,0H-0.9l57.8,100L-0.9,200h70.1l52.4-90.6
				C124.9,103.6,124.9,96.4,121.6,90.6z"/>
			<path id="XMLID_37_" class="st5" d="M0,198.4l-0.9,1.6H35l0.9-1.6H0z"/>
			<path id="XMLID_11_" class="st1" d="M121.6,90.6L69.2,0H-0.9l57.8,100L-0.9,200h70.1l52.4-90.6
				C124.9,103.6,124.9,96.4,121.6,90.6z"/>
			<path id="XMLID_36_" class="st6" d="M-0.9,200H0l57.4-99.2l-0.5-0.8L-0.9,200z"/>
			<path id="XMLID_12_" class="st1" d="M121.6,90.6L69.2,0H-0.9l57.8,100L-0.9,200h70.1l52.4-90.6
				C124.9,103.6,124.9,96.4,121.6,90.6z"/>
			
				<radialGradient id="XMLID_5_" cx="624.471" cy="930.678" r="44.264" gradientTransform="matrix(1.5625 0 0 1.5625 -883.9912 -1294.2252)" gradientUnits="userSpaceOnUse">
				<stop  offset="0" style="stop-color:#BF360C;stop-opacity:0.2"/>
				<stop  offset="1" style="stop-color:#BF360C;stop-opacity:2.000000e-02"/>
			</radialGradient>
			<path id="XMLID_79_" class="st7" d="M92,160.6l-17.1-29.5l-4.2,7.2L92,160.6z"/>
			<path id="XMLID_13_" class="st1" d="M121.6,90.6L69.2,0H-0.9l57.8,100L-0.9,200h70.1l52.4-90.6
				C124.9,103.6,124.9,96.4,121.6,90.6z"/>
			
				<radialGradient id="XMLID_21_" cx="624.346" cy="930.958" r="44.623" gradientTransform="matrix(1.5625 0 0 1.5625 -883.9912 -1294.2252)" gradientUnits="userSpaceOnUse">
				<stop  offset="0" style="stop-color:#263238;stop-opacity:0.2"/>
				<stop  offset="1" style="stop-color:#263238;stop-opacity:2.000000e-02"/>
			</radialGradient>
			<path id="XMLID_78_" class="st8" d="M70.7,138.3l4.2-7.2l-18-31.1l-8.5,14.8L70.7,138.3z"/>
			<path id="XMLID_14_" class="st1" d="M121.6,90.6L69.2,0H-0.9l57.8,100L-0.9,200h70.1l52.4-90.6
				C124.9,103.6,124.9,96.4,121.6,90.6z"/>
			<g id="XMLID_75_">
				<g id="XMLID_76_">
					<path id="XMLID_77_" class="st9" d="M35,0H-0.9L92,160.6l17.9-31.1L35,0z"/>
				</g>
			</g>
			<path id="XMLID_15_" class="st1" d="M121.6,90.6L69.2,0H-0.9l57.8,100L-0.9,200h70.1l52.4-90.6
				C124.9,103.6,124.9,96.4,121.6,90.6z"/>
			<path id="XMLID_35_" class="st10" d="M121.6,109.4c3.4-5.8,3.4-13,0-18.8L69.2,0H35l74.9,129.5L121.6,109.4z"/>
			<path id="XMLID_16_" class="st1" d="M121.6,90.6L69.2,0H-0.9l57.8,100L-0.9,200h70.1l52.4-90.6
				C124.9,103.6,124.9,96.4,121.6,90.6z"/>
			<path id="XMLID_34_" class="st11" d="M109.9,129.5l-0.4-0.8L92,159L0,0h-0.9L92,160.6L109.9,129.5z"/>
			<path id="XMLID_17_" class="st1" d="M121.6,90.6L69.2,0H-0.9l57.8,100L-0.9,200h70.1l52.4-90.6
				C124.9,103.6,124.9,96.4,121.6,90.6z"/>
			<path id="XMLID_2_" class="st6" d="M69.2,1.6l52.4,90.6c1.5,2.7,2.3,5.6,2.5,8.6c0.1-3.5-0.7-7-2.5-10.2L69.2,0H-0.9L0,1.6H69.2z
				"/>
			<path id="XMLID_18_" class="st1" d="M121.6,90.6L69.2,0H-0.9l57.8,100L-0.9,200h70.1l52.4-90.6
				C124.9,103.6,124.9,96.4,121.6,90.6z"/>
			<path id="XMLID_74_" class="st12" d="M109.9,129.5l11.6-20.1c1.8-3.1,2.6-6.7,2.5-10.2c-0.1,3-0.9,5.9-2.5,8.6l-12.1,20.9
				L109.9,129.5z"/>
			<path id="XMLID_19_" class="st1" d="M121.6,90.6L69.2,0H-0.9l57.8,100L-0.9,200h70.1l52.4-90.6
				C124.9,103.6,124.9,96.4,121.6,90.6z"/>
			
				<radialGradient id="XMLID_22_" cx="564.195" cy="829.304" r="134.35" gradientTransform="matrix(1.5625 0 0 1.5625 -883.9912 -1294.2252)" gradientUnits="userSpaceOnUse">
				<stop  offset="0" style="stop-color:#FFFFFF;stop-opacity:0.1"/>
				<stop  offset="1" style="stop-color:#FFFFFF;stop-opacity:0"/>
			</radialGradient>
			<path id="XMLID_73_" class="st13" d="M121.6,90.6L69.2,0H-0.9l57.8,100L-0.9,200h70.1l52.4-90.6
				C124.9,103.6,124.9,96.4,121.6,90.6z"/>
		</g>
	</g>
</g>
<g>
	<path class="st0" d="M843.9,18.7h26.2v0.9l-58.5,67.5l62.5,88.2v0.9h-24.9l-51.3-73.5l-24.2,27.9v45.5h-20.2V18.7h20.2v81.2h0.9
		L843.9,18.7z"/>
	<path class="st0" d="M978.8,176.2h-88.4V18.7h20.2v138.2h68.2V176.2z"/>
</g>
</svg>
