<svg xmlns="http://www.w3.org/2000/svg" id="Layer_4" viewBox="0 0 978.8 200"><style>.st0{fill:#757575;} .st1{fill:none;} .st2{fill:#FFC107;} .st3{fill:#0F9D58;} .st4{opacity:0.2;fill:#BF360C;enable-background:new ;} .st5{opacity:0.2;fill:#263238;enable-background:new ;} .st6{opacity:0.2;fill:#FFFFFF;enable-background:new ;} .st7{fill:url(#XMLID_5_);} .st8{fill:url(#XMLID_21_);} .st9{fill:#4285F4;} .st10{fill:#DB4437;} .st11{opacity:0.2;fill:#1A237E;enable-background:new ;} .st12{opacity:0.2;fill:#3E2723;enable-background:new ;} .st13{fill:url(#XMLID_22_);}</style><g id="XMLID_6_"><path id="XMLID_3_" d="M357.8 103.7c0 22-6.5 39.6-19.6 52.7-14.8 15.6-34.1 23.4-57.9 23.4-22.8 0-42.1-7.9-58.1-23.7-15.9-15.8-23.9-35.4-23.9-58.7s8-42.9 23.9-58.7S257.5 15 280.3 15c11.3 0 22.1 2.2 32.4 6.6s18.5 10.3 24.7 17.6l-13.9 13.9c-10.5-12.6-24.9-18.8-43.3-18.8-16.6 0-31 5.8-43.1 17.5s-18.2 26.8-18.2 45.5 6.1 33.8 18.2 45.5c12.1 11.7 26.5 17.5 43.1 17.5 17.6 0 32.3-5.9 44.1-17.6 7.6-7.6 12-18.3 13.2-31.9h-57.3v-19h76.4c.8 4.1 1.2 8.1 1.2 11.9z" class="st0"/><path id="XMLID_20_" d="M378.2 176.2V18.4h48.2c24.2 0 43.6 7.3 58.2 21.9 14.5 14.6 21.8 33.6 21.8 57s-7.3 42.3-21.8 57c-14.5 14.6-33.9 21.9-58.2 21.9h-48.2zm20.3-19.4h28c18.2 0 32.6-5.2 43.3-15.6 10.6-10.4 16-25 16-43.8 0-18.7-5.3-33.2-16-43.7s-25.1-15.8-43.3-15.8h-28v118.9z" class="st0"/><path id="XMLID_23_" d="M678.9 103.7c0 22-6.5 39.6-19.6 52.7-14.8 15.6-34.1 23.4-57.9 23.4-22.8 0-42.1-7.9-58.1-23.7-15.9-15.8-23.9-35.4-23.9-58.7s8-42.9 23.9-58.7S578.6 15 601.4 15c11.3 0 22.1 2.2 32.4 6.6 10.3 4.4 18.5 10.3 24.7 17.6l-13.9 13.9c-10.5-12.6-24.9-18.8-43.3-18.8-16.6 0-31 5.8-43.1 17.5S540 78.6 540 97.3s6.1 33.8 18.2 45.5 26.5 17.5 43.1 17.5c17.6 0 32.3-5.9 44.1-17.6 7.6-7.6 12-18.3 13.2-31.9h-57.3v-19h76.4c.8 4.1 1.2 8.1 1.2 11.9z" class="st0"/></g><g id="XMLID_1_"><g id="XMLID_50_"><g id="XMLID_72_"><path id="XMLID_7_" d="M121.6 90.6L69.2 0H-.9l57.8 100L-.9 200h70.1l52.4-90.6c3.3-5.8 3.3-13 0-18.8z" class="st1"/><path id="XMLID_80_" d="M91.5 159.8l-16.6-28.7L35 200h34.2L92 160.6l-.5-.8z" class="st2"/><path id="XMLID_8_" d="M121.6 90.6L69.2 0H-.9l57.8 100L-.9 200h70.1l52.4-90.6c3.3-5.8 3.3-13 0-18.8z" class="st1"/><path id="XMLID_39_" d="M56.9 100l18 31.1L35 200H-.9l57.8-100z" class="st3"/><path id="XMLID_9_" d="M121.6 90.6L69.2 0H-.9l57.8 100L-.9 200h70.1l52.4-90.6c3.3-5.8 3.3-13 0-18.8z" class="st1"/><path id="XMLID_38_" d="M69.2 198.4H35.9L35 200h34.2L92 160.6l-.5-.8-22.3 38.6z" class="st4"/><path id="XMLID_10_" d="M121.6 90.6L69.2 0H-.9l57.8 100L-.9 200h70.1l52.4-90.6c3.3-5.8 3.3-13 0-18.8z" class="st1"/><path id="XMLID_37_" d="M0 198.4l-.9 1.6H35l.9-1.6H0z" class="st5"/><path id="XMLID_11_" d="M121.6 90.6L69.2 0H-.9l57.8 100L-.9 200h70.1l52.4-90.6c3.3-5.8 3.3-13 0-18.8z" class="st1"/><path id="XMLID_36_" d="M-.9 200H0l57.4-99.2-.5-.8L-.9 200z" class="st6"/><path id="XMLID_12_" d="M121.6 90.6L69.2 0H-.9l57.8 100L-.9 200h70.1l52.4-90.6c3.3-5.8 3.3-13 0-18.8z" class="st1"/><radialGradient id="XMLID_5_" cx="624.471" cy="930.678" r="44.264" gradientTransform="translate(-883.99 -1294.225) scale(1.5625)" gradientUnits="userSpaceOnUse"><stop offset="0" stop-color="#BF360C" stop-opacity=".2"/><stop offset="1" stop-color="#BF360C" stop-opacity=".02"/></radialGradient><path id="XMLID_79_" d="M92 160.6l-17.1-29.5-4.2 7.2L92 160.6z" class="st7"/><path id="XMLID_13_" d="M121.6 90.6L69.2 0H-.9l57.8 100L-.9 200h70.1l52.4-90.6c3.3-5.8 3.3-13 0-18.8z" class="st1"/><radialGradient id="XMLID_21_" cx="624.346" cy="930.958" r="44.623" gradientTransform="translate(-883.99 -1294.225) scale(1.5625)" gradientUnits="userSpaceOnUse"><stop offset="0" stop-color="#263238" stop-opacity=".2"/><stop offset="1" stop-color="#263238" stop-opacity=".02"/></radialGradient><path id="XMLID_78_" d="M70.7 138.3l4.2-7.2-18-31.1-8.5 14.8 22.3 23.5z" class="st8"/><path id="XMLID_14_" d="M121.6 90.6L69.2 0H-.9l57.8 100L-.9 200h70.1l52.4-90.6c3.3-5.8 3.3-13 0-18.8z" class="st1"/><g id="XMLID_75_"><g id="XMLID_76_"><path id="XMLID_77_" d="M35 0H-.9L92 160.6l17.9-31.1L35 0z" class="st9"/></g></g><path id="XMLID_15_" d="M121.6 90.6L69.2 0H-.9l57.8 100L-.9 200h70.1l52.4-90.6c3.3-5.8 3.3-13 0-18.8z" class="st1"/><path id="XMLID_35_" d="M121.6 109.4c3.4-5.8 3.4-13 0-18.8L69.2 0H35l74.9 129.5 11.7-20.1z" class="st10"/><path id="XMLID_16_" d="M121.6 90.6L69.2 0H-.9l57.8 100L-.9 200h70.1l52.4-90.6c3.3-5.8 3.3-13 0-18.8z" class="st1"/><path id="XMLID_34_" d="M109.9 129.5l-.4-.8L92 159 0 0h-.9L92 160.6l17.9-31.1z" class="st11"/><path id="XMLID_17_" d="M121.6 90.6L69.2 0H-.9l57.8 100L-.9 200h70.1l52.4-90.6c3.3-5.8 3.3-13 0-18.8z" class="st1"/><path id="XMLID_2_" d="M69.2 1.6l52.4 90.6c1.5 2.7 2.3 5.6 2.5 8.6.1-3.5-.7-7-2.5-10.2L69.2 0H-.9L0 1.6h69.2z" class="st6"/><path id="XMLID_18_" d="M121.6 90.6L69.2 0H-.9l57.8 100L-.9 200h70.1l52.4-90.6c3.3-5.8 3.3-13 0-18.8z" class="st1"/><path id="XMLID_74_" d="M109.9 129.5l11.6-20.1c1.8-3.1 2.6-6.7 2.5-10.2-.1 3-.9 5.9-2.5 8.6l-12.1 20.9.5.8z" class="st12"/><path id="XMLID_19_" d="M121.6 90.6L69.2 0H-.9l57.8 100L-.9 200h70.1l52.4-90.6c3.3-5.8 3.3-13 0-18.8z" class="st1"/><radialGradient id="XMLID_22_" cx="564.195" cy="829.304" r="134.35" gradientTransform="translate(-883.99 -1294.225) scale(1.5625)" gradientUnits="userSpaceOnUse"><stop offset="0" stop-color="#FFF" stop-opacity=".1"/><stop offset="1" stop-color="#FFF" stop-opacity="0"/></radialGradient><path id="XMLID_73_" d="M121.6 90.6L69.2 0H-.9l57.8 100L-.9 200h70.1l52.4-90.6c3.3-5.8 3.3-13 0-18.8z" class="st13"/></g></g></g><path d="M843.9 18.7h26.2v.9l-58.5 67.5 62.5 88.2v.9h-24.9l-51.3-73.5-24.2 27.9v45.5h-20.2V18.7h20.2v81.2h.9l69.3-81.2zM978.8 176.2h-88.4V18.7h20.2v138.2h68.2v19.3z" class="st0"/></svg>